# This file uses centimeters as units for non-parametric coordinates.

mtllib Coin_Textured.mtl
g default
v 0.919646 2.332896 -0.450382
v 0.000000 2.713826 -0.450382
v -0.919646 2.332896 -0.450382
v -1.300575 1.413251 -0.450382
v -0.919646 0.493605 -0.450382
v 0.000000 0.112675 -0.450382
v 0.919646 0.493605 -0.450382
v 1.300576 1.413251 -0.450382
v 0.919646 2.332896 0.000000
v 0.000000 2.713826 0.000000
v -0.919646 2.332896 0.000000
v -1.300575 1.413251 0.000000
v -0.919646 0.493605 -0.000000
v 0.000000 0.112675 -0.000000
v 0.919646 0.493605 -0.000000
v 1.300576 1.413251 0.000000
v 0.919646 2.332896 0.450382
v 0.000000 2.713826 0.450382
v -0.919646 2.332896 0.450382
v -1.300575 1.413251 0.450382
v -0.919646 0.493605 0.450382
v 0.000000 0.112675 0.450382
v 0.919646 0.493605 0.450382
v 1.300576 1.413251 0.450382
v 0.792106 2.205357 -0.450382
v 0.000000 2.533458 -0.450382
v -0.792106 2.205357 -0.450382
v -1.120208 1.413251 -0.450382
v -0.792106 0.621144 -0.450382
v 0.000000 0.293043 -0.450382
v 0.792107 0.621144 -0.450382
v 1.120208 1.413251 -0.450382
v 0.792106 2.205357 0.450382
v 0.000000 2.533458 0.450382
v -0.792106 2.205357 0.450382
v -1.120208 1.413251 0.450382
v -0.792106 0.621144 0.450382
v 0.000000 0.293043 0.450382
v 0.792107 0.621144 0.450382
v 1.120208 1.413251 0.450382
v 0.792106 2.205357 -0.245777
v 0.000000 2.533458 -0.245777
v -0.792106 2.205357 -0.245777
v -1.120208 1.413251 -0.245777
v -0.792106 0.621144 -0.245777
v 0.000000 0.293043 -0.245777
v 0.792107 0.621144 -0.245777
v 1.120208 1.413251 -0.245777
v 0.792106 2.205357 0.245777
v 0.000000 2.533458 0.245777
v -0.792106 2.205357 0.245777
v -1.120208 1.413251 0.245777
v -0.792106 0.621144 0.245777
v 0.000000 0.293043 0.245777
v 0.792107 0.621144 0.245777
v 1.120208 1.413251 0.245777
v 0.376703 2.036661 -0.245777
v 0.000000 2.198211 -0.245777
v -0.376703 2.036661 -0.245777
v -0.662442 1.666345 -0.245777
v -0.475479 1.064475 -0.245777
v 0.000000 0.628291 -0.245777
v 0.475480 1.064475 -0.245777
v 0.662442 1.666345 -0.245777
v 0.376703 2.036661 0.245777
v 0.000000 2.198211 0.245777
v -0.376703 2.036661 0.245777
v -0.662442 1.666345 0.245777
v -0.475479 1.064475 0.245777
v 0.000000 0.628291 0.245777
v 0.475480 1.064475 0.245777
v 0.662442 1.666345 0.245777
v 0.376703 2.036661 -0.436246
v 0.000000 2.198211 -0.436246
v 0.000000 1.666345 -0.436246
v -0.376703 2.036661 -0.436246
v -0.662442 1.666345 -0.436246
v -0.475479 1.064475 -0.436246
v 0.000000 0.628291 -0.436246
v 0.475480 1.064475 -0.436246
v 0.662442 1.666345 -0.436246
v 0.376703 2.036661 0.436246
v 0.000000 2.198211 0.436246
v 0.000000 1.666345 0.436246
v -0.376703 2.036661 0.436246
v -0.662442 1.666345 0.436246
v -0.475479 1.064475 0.436246
v 0.000000 0.628291 0.436246
v 0.475480 1.064475 0.436246
v 0.662442 1.666345 0.436246
vt 0.777477 0.133287
vt 0.650960 0.081526
vt 0.660898 0.968223
vt 0.824996 0.897277
vt 0.524715 0.134165
vt 0.494598 0.902775
vt 0.472700 0.260804
vt 0.423092 0.738692
vt 0.525556 0.387179
vt 0.488616 0.571952
vt 0.652322 0.439229
vt 0.653114 0.500342
vt 0.778606 0.386143
vt 0.819913 0.566443
vt 0.830391 0.259429
vt 0.890939 0.730874
vt 0.658630 0.913354
vt 0.784698 0.859992
vt 0.531637 0.862259
vt 0.477925 0.736198
vt 0.529134 0.608959
vt 0.655399 0.555162
vt 0.782598 0.606698
vt 0.836093 0.732969
vt 0.126081 0.359288
vt 0.194754 0.334584
vt 0.192144 0.426535
vt 0.076854 0.425402
vt 0.103807 0.534596
vt 0.188971 0.601338
vt 0.276659 0.537340
vt 0.307689 0.430511
vt 0.261810 0.362458
vt 0.252410 0.908672
vt 0.182080 0.932777
vt 0.186157 0.839157
vt 0.114207 0.903349
vt 0.068526 0.833324
vt 0.101781 0.724990
vt 0.192085 0.661156
vt 0.277802 0.730451
vt 0.303571 0.842090
vt 0.761810 0.149006
vt 0.650933 0.103720
vt 0.540373 0.149891
vt 0.494892 0.260833
vt 0.541275 0.371511
vt 0.652292 0.417029
vt 0.762859 0.370502
vt 0.808199 0.259478
vt 0.658513 0.891131
vt 0.768931 0.844325
vt 0.547228 0.846420
vt 0.500148 0.736021
vt 0.544980 0.624542
vt 0.655523 0.577393
vt 0.766920 0.622452
vt 0.813872 0.733037
vt 0.745316 0.166177
vt 0.651334 0.127525
vt 0.557477 0.166455
vt 0.518681 0.260429
vt 0.557844 0.354422
vt 0.651828 0.393214
vt 0.745660 0.354046
vt 0.784404 0.259954
vt 0.657957 0.867296
vt 0.751712 0.827824
vt 0.563638 0.829122
vt 0.523970 0.735408
vt 0.562283 0.640931
vt 0.656089 0.601238
vt 0.750397 0.639634
vt 0.790051 0.733546
vt 0.283027 0.336690
vt 0.194818 0.302028
vt 0.105296 0.332917
vt 0.044347 0.420811
vt 0.076151 0.554703
vt 0.190347 0.633031
vt 0.304078 0.557185
vt 0.339915 0.425585
vt 0.181511 0.965937
vt 0.273174 0.935854
vt 0.092199 0.929269
vt 0.035626 0.837845
vt 0.074159 0.704353
vt 0.191173 0.628853
vt 0.306282 0.710397
vt 0.336611 0.847268
vt 0.735875 0.763868
vt 0.702272 0.808058
vt 0.713237 0.692599
vt 0.656354 0.641118
vt 0.600197 0.693373
vt 0.578569 0.764952
vt 0.612800 0.808673
vt 0.657673 0.827534
vt 0.730036 0.230141
vt 0.696097 0.186311
vt 0.708070 0.301494
vt 0.651734 0.353388
vt 0.595193 0.301701
vt 0.572941 0.230408
vt 0.606742 0.186452
vt 0.651388 0.167237
vt 0.885167 0.257260
vt 0.814726 0.093064
vt 0.818891 0.423303
vt 0.654386 0.493984
vt 0.488151 0.427240
vt 0.417929 0.262651
vt 0.484688 0.096709
vt 0.649019 0.026729
vn 0.382683 0.923880 0.000000
vn 0.382683 0.923880 0.000000
vn 0.382683 0.923880 0.000000
vn 0.382683 0.923880 0.000000
vn -0.382683 0.923880 0.000000
vn -0.382683 0.923880 0.000000
vn -0.382683 0.923880 0.000000
vn -0.382683 0.923880 0.000000
vn -0.923880 0.382683 0.000000
vn -0.923880 0.382683 0.000000
vn -0.923880 0.382683 0.000000
vn -0.923880 0.382683 0.000000
vn -0.923880 -0.382683 -0.000000
vn -0.923880 -0.382683 -0.000000
vn -0.923880 -0.382683 -0.000000
vn -0.923880 -0.382683 -0.000000
vn -0.382683 -0.923880 -0.000000
vn -0.382683 -0.923880 -0.000000
vn -0.382683 -0.923880 -0.000000
vn -0.382683 -0.923880 -0.000000
vn 0.382683 -0.923880 -0.000000
vn 0.382683 -0.923880 -0.000000
vn 0.382683 -0.923880 -0.000000
vn 0.382683 -0.923880 -0.000000
vn 0.923880 -0.382683 -0.000000
vn 0.923880 -0.382683 -0.000000
vn 0.923880 -0.382683 -0.000000
vn 0.923880 -0.382683 -0.000000
vn 0.923879 0.382684 0.000000
vn 0.923879 0.382684 0.000000
vn 0.923879 0.382684 0.000000
vn 0.923879 0.382684 0.000000
vn 0.382683 0.923880 0.000000
vn 0.382683 0.923880 0.000000
vn -0.382683 0.923880 0.000000
vn -0.382683 0.923880 0.000000
vn -0.923880 0.382683 0.000000
vn -0.923880 0.382683 0.000000
vn -0.923880 -0.382683 -0.000000
vn -0.923880 -0.382683 -0.000000
vn -0.382683 -0.923880 -0.000000
vn -0.382683 -0.923880 -0.000000
vn 0.382683 -0.923880 -0.000000
vn 0.382683 -0.923880 -0.000000
vn 0.923880 -0.382683 -0.000000
vn 0.923880 -0.382683 -0.000000
vn 0.923879 0.382684 0.000000
vn 0.923879 0.382684 0.000000
vn 0.000000 -0.000000 -1.000000
vn 0.000000 0.000000 -1.000000
vn 0.000000 0.000000 -1.000000
vn 0.000000 0.000000 -1.000000
vn 0.000000 0.000000 -1.000000
vn 0.000000 0.000000 -1.000000
vn 0.000000 -0.000000 -1.000000
vn 0.000000 0.000000 -1.000000
vn 0.000000 0.000000 -1.000000
vn 0.000000 0.000000 1.000000
vn 0.000000 -0.000000 1.000000
vn 0.000000 -0.000000 1.000000
vn 0.000000 0.000000 1.000000
vn 0.000000 0.000000 1.000000
vn 0.000000 0.000000 1.000000
vn 0.000000 -0.000000 1.000000
vn 0.000000 -0.000000 1.000000
vn 0.000000 0.000000 1.000000
vn 0.000000 0.000000 -1.000000
vn 0.000000 0.000000 -1.000000
vn 0.000000 0.000000 -1.000000
vn 0.000000 0.000000 -1.000000
vn 0.000000 0.000000 -1.000000
vn 0.000000 0.000000 -1.000000
vn 0.000000 0.000000 -1.000000
vn 0.000000 0.000000 -1.000000
vn 0.000000 -0.000000 -1.000000
vn 0.000000 -0.000000 -1.000000
vn 0.000000 -0.000000 -1.000000
vn 0.000000 -0.000000 -1.000000
vn 0.000000 0.000000 -1.000000
vn 0.000000 0.000000 -1.000000
vn 0.000000 0.000000 -1.000000
vn 0.000000 0.000000 -1.000000
vn 0.000000 0.000000 -1.000000
vn 0.000000 0.000000 -1.000000
vn 0.000000 0.000000 -1.000000
vn 0.000000 0.000000 -1.000000
vn 0.000000 -0.000000 -1.000000
vn 0.000000 -0.000000 -1.000000
vn 0.000000 -0.000000 -1.000000
vn 0.000000 -0.000000 -1.000000
vn 0.000000 0.000000 -1.000000
vn 0.000000 0.000000 -1.000000
vn 0.000000 0.000000 -1.000000
vn 0.000000 0.000000 -1.000000
vn 0.000000 -0.000000 -1.000000
vn 0.000000 -0.000000 -1.000000
vn 0.000000 -0.000000 -1.000000
vn 0.000000 -0.000000 -1.000000
vn 0.000000 0.000000 1.000000
vn 0.000000 0.000000 1.000000
vn 0.000000 0.000000 1.000000
vn 0.000000 0.000000 1.000000
vn 0.000000 -0.000000 1.000000
vn 0.000000 -0.000000 1.000000
vn 0.000000 -0.000000 1.000000
vn 0.000000 -0.000000 1.000000
vn 0.000000 -0.000000 1.000000
vn 0.000000 -0.000000 1.000000
vn 0.000000 -0.000000 1.000000
vn 0.000000 -0.000000 1.000000
vn 0.000000 0.000000 1.000000
vn 0.000000 0.000000 1.000000
vn 0.000000 0.000000 1.000000
vn 0.000000 0.000000 1.000000
vn 0.000000 -0.000000 1.000000
vn 0.000000 -0.000000 1.000000
vn 0.000000 -0.000000 1.000000
vn 0.000000 -0.000000 1.000000
vn 0.000000 -0.000000 1.000000
vn 0.000000 -0.000000 1.000000
vn 0.000000 -0.000000 1.000000
vn 0.000000 -0.000000 1.000000
vn 0.000000 0.000000 1.000000
vn 0.000000 0.000000 1.000000
vn 0.000000 0.000000 1.000000
vn 0.000000 0.000000 1.000000
vn 0.000000 -0.000000 1.000000
vn 0.000000 -0.000000 1.000000
vn 0.000000 -0.000000 1.000000
vn 0.000000 -0.000000 1.000000
vn -0.382683 -0.923880 -0.000000
vn -0.382683 -0.923880 -0.000000
vn -0.382683 -0.923880 -0.000000
vn -0.382683 -0.923880 -0.000000
vn 0.382683 -0.923880 -0.000000
vn 0.382683 -0.923880 -0.000000
vn 0.382683 -0.923880 -0.000000
vn 0.382683 -0.923880 -0.000000
vn 0.923880 -0.382683 -0.000000
vn 0.923880 -0.382683 -0.000000
vn 0.923880 -0.382683 -0.000000
vn 0.923880 -0.382683 -0.000000
vn 0.923880 0.382683 0.000000
vn 0.923880 0.382683 0.000000
vn 0.923880 0.382683 0.000000
vn 0.923880 0.382683 0.000000
vn 0.382683 0.923880 0.000000
vn 0.382683 0.923880 0.000000
vn 0.382683 0.923880 0.000000
vn 0.382683 0.923880 0.000000
vn -0.382683 0.923880 0.000000
vn -0.382683 0.923880 0.000000
vn -0.382683 0.923880 0.000000
vn -0.382683 0.923880 0.000000
vn -0.923880 0.382683 0.000000
vn -0.923880 0.382683 0.000000
vn -0.923880 0.382683 0.000000
vn -0.923880 0.382683 0.000000
vn -0.923880 -0.382683 -0.000000
vn -0.923880 -0.382683 -0.000000
vn -0.923880 -0.382683 -0.000000
vn -0.923880 -0.382683 -0.000000
vn -0.382683 -0.923880 -0.000000
vn -0.382683 -0.923880 -0.000000
vn -0.382683 -0.923880 -0.000000
vn -0.382683 -0.923880 -0.000000
vn 0.382683 -0.923880 -0.000000
vn 0.382683 -0.923880 -0.000000
vn 0.382683 -0.923880 -0.000000
vn 0.382683 -0.923880 -0.000000
vn 0.923880 -0.382683 -0.000000
vn 0.923880 -0.382683 -0.000000
vn 0.923880 -0.382683 -0.000000
vn 0.923880 -0.382683 -0.000000
vn 0.923880 0.382683 0.000000
vn 0.923880 0.382683 0.000000
vn 0.923880 0.382683 0.000000
vn 0.923880 0.382683 0.000000
vn 0.382683 0.923880 0.000000
vn 0.382683 0.923880 0.000000
vn 0.382683 0.923880 0.000000
vn 0.382683 0.923880 0.000000
vn -0.382683 0.923880 0.000000
vn -0.382683 0.923880 0.000000
vn -0.382683 0.923880 0.000000
vn -0.382683 0.923880 0.000000
vn -0.923880 0.382683 0.000000
vn -0.923880 0.382683 0.000000
vn -0.923880 0.382683 0.000000
vn -0.923880 0.382683 0.000000
vn -0.923880 -0.382683 -0.000000
vn -0.923880 -0.382683 -0.000000
vn -0.923880 -0.382683 -0.000000
vn -0.923880 -0.382683 -0.000000
vn 0.000000 -0.000000 -1.000000
vn 0.000000 -0.000000 -1.000000
vn 0.000000 -0.000000 -1.000000
vn 0.000000 -0.000000 -1.000000
vn 0.000000 0.000000 -1.000000
vn 0.000000 0.000000 -1.000000
vn 0.000000 0.000000 -1.000000
vn 0.000000 0.000000 -1.000000
vn 0.000000 -0.000000 -1.000000
vn 0.000000 -0.000000 -1.000000
vn 0.000000 -0.000000 -1.000000
vn 0.000000 -0.000000 -1.000000
vn 0.000000 0.000000 -1.000000
vn 0.000000 0.000000 -1.000000
vn 0.000000 0.000000 -1.000000
vn 0.000000 0.000000 -1.000000
vn 0.000000 -0.000000 -1.000000
vn 0.000000 -0.000000 -1.000000
vn 0.000000 -0.000000 -1.000000
vn 0.000000 -0.000000 -1.000000
vn 0.000000 0.000000 -1.000000
vn 0.000000 0.000000 -1.000000
vn 0.000000 0.000000 -1.000000
vn 0.000000 0.000000 -1.000000
vn 0.000000 -0.000000 -1.000000
vn 0.000000 -0.000000 -1.000000
vn 0.000000 -0.000000 -1.000000
vn 0.000000 -0.000000 -1.000000
vn 0.000000 0.000000 -1.000000
vn 0.000000 0.000000 -1.000000
vn 0.000000 0.000000 -1.000000
vn 0.000000 0.000000 -1.000000
vn 0.000000 -0.000000 1.000000
vn 0.000000 -0.000000 1.000000
vn 0.000000 -0.000000 1.000000
vn 0.000000 -0.000000 1.000000
vn 0.000000 0.000000 1.000000
vn 0.000000 0.000000 1.000000
vn 0.000000 0.000000 1.000000
vn 0.000000 0.000000 1.000000
vn 0.000000 0.000000 1.000000
vn 0.000000 0.000000 1.000000
vn 0.000000 0.000000 1.000000
vn 0.000000 0.000000 1.000000
vn 0.000000 -0.000000 1.000000
vn 0.000000 -0.000000 1.000000
vn 0.000000 -0.000000 1.000000
vn 0.000000 -0.000000 1.000000
vn 0.000000 -0.000000 1.000000
vn 0.000000 -0.000000 1.000000
vn 0.000000 -0.000000 1.000000
vn 0.000000 -0.000000 1.000000
vn 0.000000 0.000000 1.000000
vn 0.000000 0.000000 1.000000
vn 0.000000 0.000000 1.000000
vn 0.000000 0.000000 1.000000
vn 0.000000 -0.000000 1.000000
vn 0.000000 -0.000000 1.000000
vn 0.000000 -0.000000 1.000000
vn 0.000000 -0.000000 1.000000
vn 0.000000 -0.000000 1.000000
vn 0.000000 -0.000000 1.000000
vn 0.000000 -0.000000 1.000000
vn 0.000000 -0.000000 1.000000
vn 0.394137 0.919052 0.000000
vn 0.394137 0.919052 0.000000
vn 0.394137 0.919052 0.000000
vn 0.394137 0.919052 0.000000
vn -0.394137 0.919052 0.000000
vn -0.394137 0.919052 0.000000
vn -0.394137 0.919052 0.000000
vn -0.394137 0.919052 0.000000
vn -0.791713 0.610893 0.000000
vn -0.791713 0.610893 0.000000
vn -0.791713 0.610893 0.000000
vn -0.791713 0.610893 0.000000
vn -0.954985 -0.296653 -0.000000
vn -0.954985 -0.296653 -0.000000
vn -0.954985 -0.296653 -0.000000
vn -0.954985 -0.296653 -0.000000
vn -0.676001 -0.736901 -0.000000
vn -0.676001 -0.736901 -0.000000
vn -0.676001 -0.736901 -0.000000
vn -0.676001 -0.736901 -0.000000
vn 0.676001 -0.736901 -0.000000
vn 0.676001 -0.736901 -0.000000
vn 0.676001 -0.736901 -0.000000
vn 0.676001 -0.736901 -0.000000
vn 0.954985 -0.296653 -0.000000
vn 0.954985 -0.296653 -0.000000
vn 0.954985 -0.296653 -0.000000
vn 0.954985 -0.296653 -0.000000
vn 0.791713 0.610893 0.000000
vn 0.791713 0.610893 0.000000
vn 0.791713 0.610893 0.000000
vn 0.791713 0.610893 0.000000
vn 0.394137 0.919052 0.000000
vn 0.394137 0.919052 0.000000
vn 0.394137 0.919052 0.000000
vn 0.394137 0.919052 0.000000
vn -0.394137 0.919052 0.000000
vn -0.394137 0.919052 0.000000
vn -0.394137 0.919052 0.000000
vn -0.394137 0.919052 0.000000
vn -0.791713 0.610893 0.000000
vn -0.791713 0.610893 0.000000
vn -0.791713 0.610893 0.000000
vn -0.791713 0.610893 0.000000
vn -0.954985 -0.296653 -0.000000
vn -0.954985 -0.296653 -0.000000
vn -0.954985 -0.296653 -0.000000
vn -0.954985 -0.296653 -0.000000
vn -0.676001 -0.736901 -0.000000
vn -0.676001 -0.736901 -0.000000
vn -0.676001 -0.736901 -0.000000
vn -0.676001 -0.736901 -0.000000
vn 0.676001 -0.736901 -0.000000
vn 0.676001 -0.736901 -0.000000
vn 0.676001 -0.736901 -0.000000
vn 0.676001 -0.736901 -0.000000
vn 0.954985 -0.296653 -0.000000
vn 0.954985 -0.296653 -0.000000
vn 0.954985 -0.296653 -0.000000
vn 0.954985 -0.296653 -0.000000
vn 0.791713 0.610893 0.000000
vn 0.791713 0.610893 0.000000
vn 0.791713 0.610893 0.000000
vn 0.791713 0.610893 0.000000
s 1
g Coin
usemtl lambert2SG
f 1/1/1 2/2/2 10/114/3 9/108/4
s 2
f 2/2/5 3/5/6 11/113/7 10/114/8
s 3
f 3/5/9 4/7/10 12/112/11 11/113/12
s 4
f 4/7/13 5/9/14 13/111/15 12/112/16
s 5
f 5/9/17 6/11/18 14/110/19 13/111/20
s 6
f 6/11/21 7/13/22 15/109/23 14/110/24
s 7
f 7/13/25 8/15/26 16/107/27 15/109/28
s 8
f 8/15/29 1/1/30 9/108/31 16/107/32
s 1
f 9/4/4 10/3/3 18/17/33 17/18/34
s 2
f 10/3/8 11/6/7 19/19/35 18/17/36
s 3
f 11/6/12 12/8/11 20/20/37 19/19/38
s 4
f 12/8/16 13/10/15 21/21/39 20/20/40
s 5
f 13/10/20 14/12/19 22/22/41 21/21/42
s 6
f 14/12/24 15/14/23 23/23/43 22/22/44
s 7
f 15/14/28 16/16/27 24/24/45 23/23/46
s 8
f 16/16/32 9/4/31 17/18/47 24/24/48
s 9
f 76/25/49 74/26/50 75/27/51 77/28/52
f 78/29/53 77/28/52 75/27/51 79/30/54
f 80/31/55 79/30/54 75/27/51 81/32/56
f 73/33/57 81/32/56 75/27/51 74/26/50
s 10
f 84/36/58 83/35/59 85/37/60 86/38/61
f 84/36/58 86/38/61 87/39/62 88/40/63
f 84/36/58 88/40/63 89/41/64 90/42/65
f 84/36/58 90/42/65 82/34/66 83/35/59
s off
f 2/2/67 1/1/68 25/43/69 26/44/70
f 3/5/71 2/2/72 26/44/73 27/45/74
f 4/7/75 3/5/76 27/45/77 28/46/78
f 5/9/79 4/7/80 28/46/81 29/47/82
f 6/11/83 5/9/84 29/47/85 30/48/86
f 7/13/87 6/11/88 30/48/89 31/49/90
f 8/15/91 7/13/92 31/49/93 32/50/94
f 1/1/95 8/15/96 32/50/97 25/43/98
f 17/18/99 18/17/100 34/51/101 33/52/102
f 18/17/103 19/19/104 35/53/105 34/51/106
f 19/19/107 20/20/108 36/54/109 35/53/110
f 20/20/111 21/21/112 37/55/113 36/54/114
f 21/21/115 22/22/116 38/56/117 37/55/118
f 22/22/119 23/23/120 39/57/121 38/56/122
f 23/23/123 24/24/124 40/58/125 39/57/126
f 24/24/127 17/18/128 33/52/129 40/58/130
f 26/44/131 25/43/132 41/59/133 42/60/134
f 27/45/135 26/44/136 42/60/137 43/61/138
f 28/46/139 27/45/140 43/61/141 44/62/142
f 29/47/143 28/46/144 44/62/145 45/63/146
f 30/48/147 29/47/148 45/63/149 46/64/150
f 31/49/151 30/48/152 46/64/153 47/65/154
f 32/50/155 31/49/156 47/65/157 48/66/158
f 25/43/159 32/50/160 48/66/161 41/59/162
f 33/52/163 34/51/164 50/67/165 49/68/166
f 34/51/167 35/53/168 51/69/169 50/67/170
f 35/53/171 36/54/172 52/70/173 51/69/174
f 36/54/175 37/55/176 53/71/177 52/70/178
f 37/55/179 38/56/180 54/72/181 53/71/182
f 38/56/183 39/57/184 55/73/185 54/72/186
f 39/57/187 40/58/188 56/74/189 55/73/190
f 40/58/191 33/52/192 49/68/193 56/74/194
f 42/60/195 41/59/196 57/100/197 58/106/198
f 43/61/199 42/60/200 58/106/201 59/105/202
f 44/62/203 43/61/204 59/105/205 60/104/206
f 45/63/207 44/62/208 60/104/209 61/103/210
f 46/64/211 45/63/212 61/103/213 62/102/214
f 47/65/215 46/64/216 62/102/217 63/101/218
f 48/66/219 47/65/220 63/101/221 64/99/222
f 41/59/223 48/66/224 64/99/225 57/100/226
f 49/68/227 50/67/228 66/98/229 65/92/230
f 50/67/231 51/69/232 67/97/233 66/98/234
f 51/69/235 52/70/236 68/96/237 67/97/238
f 52/70/239 53/71/240 69/95/241 68/96/242
f 53/71/243 54/72/244 70/94/245 69/95/246
f 54/72/247 55/73/248 71/93/249 70/94/250
f 55/73/251 56/74/252 72/91/253 71/93/254
f 56/74/255 49/68/256 65/92/257 72/91/258
f 58/76/259 57/75/260 73/33/261 74/26/262
f 59/77/263 58/76/264 74/26/265 76/25/266
f 60/78/267 59/77/268 76/25/269 77/28/270
f 61/79/271 60/78/272 77/28/273 78/29/274
f 62/80/275 61/79/276 78/29/277 79/30/278
f 63/81/279 62/80/280 79/30/281 80/31/282
f 64/82/283 63/81/284 80/31/285 81/32/286
f 57/75/287 64/82/288 81/32/289 73/33/290
f 65/84/291 66/83/292 83/35/293 82/34/294
f 66/83/295 67/85/296 85/37/297 83/35/298
f 67/85/299 68/86/300 86/38/301 85/37/302
f 68/86/303 69/87/304 87/39/305 86/38/306
f 69/87/307 70/88/308 88/40/309 87/39/310
f 70/88/311 71/89/312 89/41/313 88/40/314
f 71/89/315 72/90/316 90/42/317 89/41/318
f 72/90/319 65/84/320 82/34/321 90/42/322
